<mxfile host="65bd71144e">
    <diagram id="uKUrZl8ZZbrdpfyuAYoy" name="Page-1">
        <mxGraphModel dx="2105" dy="702" grid="1" gridSize="10" guides="1" tooltips="1" connect="1" arrows="1" fold="1" page="1" pageScale="1" pageWidth="1169" pageHeight="827" math="0" shadow="0">
            <root>
                <mxCell id="0"/>
                <mxCell id="1" parent="0"/>
                <mxCell id="2" value="&lt;h2 style=&quot;text-align: right; line-height: 130%;&quot;&gt;&lt;span style=&quot;background-color: initial;&quot;&gt;&lt;font style=&quot;&quot;&gt;&lt;span style=&quot;font-size: 32px;&quot;&gt;Teamie | 專案夥伴的媒合平台 &lt;/span&gt;&lt;font style=&quot;font-size: 22px; font-weight: normal;&quot;&gt;(平台營運計畫）&lt;/font&gt;&lt;/font&gt;&lt;/span&gt;&lt;/h2&gt;" style="text;strokeColor=none;align=left;fillColor=none;html=1;verticalAlign=middle;whiteSpace=wrap;rounded=0;fontStyle=0;labelBackgroundColor=none;fontColor=default;labelPosition=center;verticalLabelPosition=middle;horizontal=1;" vertex="1" parent="1">
                    <mxGeometry x="20" y="30" width="770" height="80" as="geometry"/>
                </mxCell>
                <mxCell id="14" style="edgeStyle=none;html=1;entryX=0;entryY=0.5;entryDx=0;entryDy=0;strokeWidth=1;fontFamily=Courier New;fontSize=12;fontColor=default;endArrow=oval;endFill=0;" edge="1" parent="1" source="3" target="7">
                    <mxGeometry relative="1" as="geometry"/>
                </mxCell>
                <mxCell id="3" value="&lt;p style=&quot;line-height: 120%; font-size: 15px;&quot;&gt;&lt;font face=&quot;Courier New&quot; style=&quot;font-size: 15px;&quot;&gt;學生&lt;/font&gt;&lt;/p&gt;" style="rounded=1;whiteSpace=wrap;html=1;labelBackgroundColor=none;fontSize=15;fontColor=default;align=center;labelBorderColor=none;fillColor=none;shadow=0;" vertex="1" parent="1">
                    <mxGeometry x="50" y="200" width="120" height="40" as="geometry"/>
                </mxCell>
                <mxCell id="4" value="&lt;p style=&quot;line-height: 23.4px; font-size: 10px;&quot;&gt;&lt;span style=&quot;background-color: initial;&quot;&gt;我們觀察到學生面對未來迷惘，沒有方向，急需自我實現的機會。因此以願景「You will never grow alone.」打造想法實踐的媒合平台。&lt;br&gt;&lt;/span&gt;&lt;span style=&quot;background-color: initial;&quot;&gt;Teamie平台將提供環境，實踐想法的前提。&lt;br&gt;&lt;/span&gt;&lt;span style=&quot;background-color: initial;&quot;&gt;我們以經過數次研發的「」，希望建立有溫度和效率的平台，使用者在Teamie尋找最合適的專案/夥伴，透過Side Project「拓展人脈」、「增加經歷」提升專業，找到自我定位。&lt;/span&gt;&lt;/p&gt;" style="rounded=0;whiteSpace=wrap;html=1;labelBackgroundColor=none;fontSize=32;fontColor=default;align=left;" vertex="1" parent="1">
                    <mxGeometry x="-470" y="290" width="440" height="320" as="geometry"/>
                </mxCell>
                <mxCell id="13" style="edgeStyle=none;html=1;entryX=0;entryY=0.5;entryDx=0;entryDy=0;strokeWidth=1;fontFamily=Courier New;fontSize=12;fontColor=default;endArrow=oval;endFill=0;" edge="1" parent="1" source="5" target="6">
                    <mxGeometry relative="1" as="geometry">
                        <Array as="points">
                            <mxPoint x="190" y="150"/>
                        </Array>
                    </mxGeometry>
                </mxCell>
                <mxCell id="5" value="&lt;p style=&quot;line-height: 120%; font-size: 15px;&quot;&gt;&lt;font face=&quot;Courier New&quot; style=&quot;font-size: 15px;&quot;&gt;畢業生&lt;/font&gt;&lt;/p&gt;" style="rounded=1;whiteSpace=wrap;html=1;labelBackgroundColor=none;fontSize=15;fontColor=default;align=center;fillColor=none;" vertex="1" parent="1">
                    <mxGeometry x="50" y="130" width="120" height="40" as="geometry"/>
                </mxCell>
                <mxCell id="6" value="&lt;p style=&quot;line-height: 120%; font-size: 15px;&quot;&gt;&lt;font face=&quot;Courier New&quot; style=&quot;font-size: 15px;&quot;&gt;&amp;nbsp;面對未來迷惘，沒有方向&lt;/font&gt;&lt;/p&gt;" style="rounded=0;whiteSpace=wrap;html=1;labelBackgroundColor=none;fontSize=15;fontColor=default;align=left;fillColor=none;strokeColor=none;" vertex="1" parent="1">
                    <mxGeometry x="210" y="120" width="250" height="60" as="geometry"/>
                </mxCell>
                <mxCell id="7" value="&lt;p style=&quot;line-height: 120%; font-size: 15px;&quot;&gt;&lt;font face=&quot;Courier New&quot; style=&quot;font-size: 15px;&quot;&gt;&amp;nbsp;急需自我實現的機會&lt;/font&gt;&lt;/p&gt;" style="rounded=0;whiteSpace=wrap;html=1;labelBackgroundColor=none;fontSize=15;fontColor=default;align=left;labelBorderColor=none;fillColor=none;strokeColor=none;" vertex="1" parent="1">
                    <mxGeometry x="210" y="190" width="250" height="60" as="geometry"/>
                </mxCell>
                <mxCell id="9" value="" style="endArrow=none;html=1;fontFamily=Courier New;fontSize=24;fontColor=default;strokeWidth=0.5;exitX=0;exitY=0.5;exitDx=0;exitDy=0;entryX=1;entryY=1;entryDx=0;entryDy=0;" edge="1" parent="1" source="11" target="11">
                    <mxGeometry width="50" height="50" relative="1" as="geometry">
                        <mxPoint x="130" y="120" as="sourcePoint"/>
                        <mxPoint x="180" y="130" as="targetPoint"/>
                        <Array as="points">
                            <mxPoint x="80" y="110"/>
                            <mxPoint x="40" y="110"/>
                            <mxPoint x="40" y="250"/>
                            <mxPoint x="180" y="250"/>
                        </Array>
                    </mxGeometry>
                </mxCell>
                <mxCell id="11" value="&lt;p style=&quot;line-height: 120%; font-size: 12px;&quot;&gt;&lt;b style=&quot;font-size: 12px; font-family: &amp;quot;Courier New&amp;quot;; background-color: initial;&quot;&gt;ＴＡ&lt;/b&gt;&lt;br style=&quot;font-size: 12px;&quot;&gt;&lt;/p&gt;" style="rounded=0;whiteSpace=wrap;html=1;labelBackgroundColor=none;fontSize=12;fontColor=default;align=center;labelBorderColor=none;fillColor=none;strokeColor=none;" vertex="1" parent="1">
                    <mxGeometry x="130" y="100" width="50" height="20" as="geometry"/>
                </mxCell>
                <mxCell id="15" value="" style="endArrow=none;html=1;strokeWidth=1;fontFamily=Courier New;fontSize=22;fontColor=default;" edge="1" parent="1">
                    <mxGeometry width="50" height="50" relative="1" as="geometry">
                        <mxPoint x="30" y="280" as="sourcePoint"/>
                        <mxPoint x="1130" y="280" as="targetPoint"/>
                    </mxGeometry>
                </mxCell>
                <mxCell id="16" value="&lt;p style=&quot;line-height: 120%; font-size: 15px;&quot;&gt;&lt;font face=&quot;Courier New&quot; style=&quot;font-size: 15px;&quot;&gt;媒合平台&lt;/font&gt;&lt;/p&gt;" style="rounded=1;whiteSpace=wrap;html=1;labelBackgroundColor=none;fontSize=15;fontColor=default;align=center;fillColor=none;" vertex="1" parent="1">
                    <mxGeometry x="50" y="380" width="120" height="40" as="geometry"/>
                </mxCell>
                <mxCell id="18" value="" style="endArrow=none;html=1;fontFamily=Courier New;fontSize=24;fontColor=default;strokeWidth=0.5;exitX=0;exitY=0.5;exitDx=0;exitDy=0;" edge="1" source="19" parent="1">
                    <mxGeometry width="50" height="50" relative="1" as="geometry">
                        <mxPoint x="110" y="330" as="sourcePoint"/>
                        <mxPoint x="300" y="340" as="targetPoint"/>
                        <Array as="points">
                            <mxPoint x="80" y="330"/>
                            <mxPoint x="40" y="330"/>
                            <mxPoint x="40" y="470"/>
                            <mxPoint x="300" y="470"/>
                        </Array>
                    </mxGeometry>
                </mxCell>
                <mxCell id="19" value="&lt;p style=&quot;line-height: 120%; font-size: 12px;&quot;&gt;&lt;b style=&quot;font-size: 12px; font-family: &amp;quot;Courier New&amp;quot;; background-color: initial;&quot;&gt;平台定位&lt;/b&gt;&lt;br style=&quot;font-size: 12px;&quot;&gt;&lt;/p&gt;" style="rounded=0;whiteSpace=wrap;html=1;labelBackgroundColor=none;fontSize=12;fontColor=default;align=center;labelBorderColor=none;fillColor=none;strokeColor=none;" vertex="1" parent="1">
                    <mxGeometry x="120" y="320" width="60" height="20" as="geometry"/>
                </mxCell>
                <mxCell id="20" value="&lt;p style=&quot;line-height: 120%; font-size: 15px;&quot;&gt;&lt;font face=&quot;Courier New&quot; style=&quot;font-size: 15px;&quot;&gt;&amp;nbsp;純媒合&lt;/font&gt;&lt;/p&gt;" style="rounded=0;whiteSpace=wrap;html=1;labelBackgroundColor=none;fontSize=15;fontColor=default;align=left;fillColor=none;strokeColor=none;" vertex="1" parent="1">
                    <mxGeometry x="210" y="340" width="80" height="60" as="geometry"/>
                </mxCell>
                <mxCell id="21" style="html=1;entryX=0;entryY=0.5;entryDx=0;entryDy=0;strokeWidth=1;fontFamily=Courier New;fontSize=12;fontColor=default;endArrow=oval;endFill=0;exitX=1;exitY=0.25;exitDx=0;exitDy=0;" edge="1" source="16" target="20" parent="1">
                    <mxGeometry relative="1" as="geometry"/>
                </mxCell>
                <mxCell id="22" style="html=1;entryX=0;entryY=0.5;entryDx=0;entryDy=0;strokeWidth=1;fontFamily=Courier New;fontSize=12;fontColor=default;endArrow=oval;endFill=0;exitX=1;exitY=0.75;exitDx=0;exitDy=0;" edge="1" source="16" target="23" parent="1">
                    <mxGeometry relative="1" as="geometry"/>
                </mxCell>
                <mxCell id="23" value="&lt;p style=&quot;line-height: 120%; font-size: 15px;&quot;&gt;&lt;font face=&quot;Courier New&quot; style=&quot;font-size: 15px;&quot;&gt;&amp;nbsp;非純媒合&lt;/font&gt;&lt;/p&gt;" style="rounded=0;whiteSpace=wrap;html=1;labelBackgroundColor=none;fontSize=15;fontColor=default;align=left;labelBorderColor=none;fillColor=none;strokeColor=none;" vertex="1" parent="1">
                    <mxGeometry x="210" y="410" width="80" height="60" as="geometry"/>
                </mxCell>
                <mxCell id="26" value="&lt;p style=&quot;line-height: 120%; font-size: 15px;&quot;&gt;&lt;font face=&quot;Courier New&quot; style=&quot;font-size: 15px;&quot;&gt;學生&lt;/font&gt;&lt;/p&gt;" style="rounded=1;whiteSpace=wrap;html=1;labelBackgroundColor=none;fontSize=15;fontColor=default;align=center;labelBorderColor=none;fillColor=none;shadow=0;" vertex="1" parent="1">
                    <mxGeometry x="310" y="420" width="120" height="40" as="geometry"/>
                </mxCell>
                <mxCell id="27" value="&lt;p style=&quot;line-height: 120%; font-size: 15px;&quot;&gt;&lt;font face=&quot;Courier New&quot; style=&quot;font-size: 15px;&quot;&gt;畢業生&lt;/font&gt;&lt;/p&gt;" style="rounded=1;whiteSpace=wrap;html=1;labelBackgroundColor=none;fontSize=15;fontColor=default;align=center;fillColor=none;" vertex="1" parent="1">
                    <mxGeometry x="310" y="350" width="120" height="40" as="geometry"/>
                </mxCell>
                <mxCell id="28" style="edgeStyle=none;html=1;entryX=0;entryY=0.5;entryDx=0;entryDy=0;strokeWidth=1;fontFamily=Courier New;fontSize=12;fontColor=default;endArrow=oval;endFill=0;" edge="1" source="27" target="31" parent="1">
                    <mxGeometry relative="1" as="geometry">
                        <Array as="points">
                            <mxPoint x="450" y="370"/>
                        </Array>
                    </mxGeometry>
                </mxCell>
                <mxCell id="29" style="edgeStyle=none;html=1;entryX=0;entryY=0.5;entryDx=0;entryDy=0;strokeWidth=1;fontFamily=Courier New;fontSize=12;fontColor=default;endArrow=oval;endFill=0;" edge="1" source="26" target="30" parent="1">
                    <mxGeometry relative="1" as="geometry"/>
                </mxCell>
                <mxCell id="30" value="&lt;p style=&quot;line-height: 120%; font-size: 15px;&quot;&gt;&lt;font face=&quot;Courier New&quot; style=&quot;font-size: 15px;&quot;&gt;&amp;nbsp;急需自我實現的機會&lt;/font&gt;&lt;/p&gt;" style="rounded=0;whiteSpace=wrap;html=1;labelBackgroundColor=none;fontSize=15;fontColor=default;align=left;labelBorderColor=none;fillColor=none;strokeColor=none;" vertex="1" parent="1">
                    <mxGeometry x="470" y="410" width="250" height="60" as="geometry"/>
                </mxCell>
                <mxCell id="31" value="&lt;p style=&quot;line-height: 120%; font-size: 15px;&quot;&gt;&lt;font face=&quot;Courier New&quot; style=&quot;font-size: 15px;&quot;&gt;&amp;nbsp;面對未來迷惘，沒有方向&lt;/font&gt;&lt;/p&gt;" style="rounded=0;whiteSpace=wrap;html=1;labelBackgroundColor=none;fontSize=15;fontColor=default;align=left;fillColor=none;strokeColor=none;" vertex="1" parent="1">
                    <mxGeometry x="470" y="340" width="250" height="60" as="geometry"/>
                </mxCell>
            </root>
        </mxGraphModel>
    </diagram>
</mxfile>